<svg width="32" height="33" viewBox="0 0 32 33" fill="none" xmlns="http://www.w3.org/2000/svg">
<path d="M16.0001 29.2504C23.2999 29.2504 29.2175 23.3327 29.2175 16.033C29.2175 8.73321 23.2999 2.81558 16.0001 2.81558C8.70034 2.81558 2.78271 8.73321 2.78271 16.033C2.78271 23.3327 8.70034 29.2504 16.0001 29.2504Z" fill="#CE82FF" stroke="#CE82FF" stroke-width="1.3913"/>
<path d="M10.4348 17.4243C11.2032 17.4243 11.8261 16.8014 11.8261 16.033C11.8261 15.2646 11.2032 14.6417 10.4348 14.6417C9.66637 14.6417 9.04346 15.2646 9.04346 16.033C9.04346 16.8014 9.66637 17.4243 10.4348 17.4243Z" fill="white"/>
<path d="M16.0002 17.4243C16.7686 17.4243 17.3915 16.8014 17.3915 16.033C17.3915 15.2646 16.7686 14.6417 16.0002 14.6417C15.2318 14.6417 14.6089 15.2646 14.6089 16.033C14.6089 16.8014 15.2318 17.4243 16.0002 17.4243Z" fill="white"/>
<path d="M21.5651 17.4243C22.3335 17.4243 22.9564 16.8014 22.9564 16.033C22.9564 15.2646 22.3335 14.6417 21.5651 14.6417C20.7967 14.6417 20.1738 15.2646 20.1738 16.033C20.1738 16.8014 20.7967 17.4243 21.5651 17.4243Z" fill="white"/>
</svg>
