<svg width="32" height="32" viewBox="0 0 32 32" fill="none" xmlns="http://www.w3.org/2000/svg">
<path d="M13.3332 29.3333C19.2242 29.3333 23.9998 24.5577 23.9998 18.6667C23.9998 12.7756 19.2242 8 13.3332 8C7.44213 8 2.6665 12.7756 2.6665 18.6667C2.6665 24.5577 7.44213 29.3333 13.3332 29.3333Z" fill="#3DDAB4"/>
<path d="M21.0558 20.618C26.0076 20.618 30.0218 16.6038 30.0218 11.652C30.0218 6.70022 26.0076 2.686 21.0558 2.686C16.1041 2.686 12.0898 6.70022 12.0898 11.652C12.0898 16.6038 16.1041 20.618 21.0558 20.618Z" fill="#F5BC00"/>
<path d="M2.71338 29.3333H13.2727L7.28138 23.6993L2.71338 29.3333Z" fill="#3DDAB4"/>
<path d="M13.3332 8C13.1738 8 13.0192 8.01667 12.8612 8.024C12.3685 9.134 12.0898 10.36 12.0898 11.6527C12.0898 16.6047 16.1038 20.6187 21.0558 20.6187C22.0452 20.6187 22.9938 20.452 23.8838 20.1567C23.9525 19.668 23.9998 19.1733 23.9998 18.6667C23.9998 12.7753 19.2245 8 13.3332 8Z" fill="#00B569"/>
<path d="M29.9834 2.686H21.1074L26.1434 7.42201L29.9834 2.686Z" fill="#F5BC00"/>
</svg>
