<svg width="52" height="52" viewBox="0 0 52 52" fill="none" xmlns="http://www.w3.org/2000/svg">
<path fill-rule="evenodd" clip-rule="evenodd" d="M25.9999 51.6668C11.8246 51.6668 0.333252 40.1755 0.333252 26.0002C0.333252 11.8249 11.8246 0.333496 25.9999 0.333496C40.1752 0.333496 51.6666 11.8249 51.6666 26.0002C51.6666 40.1755 40.1752 51.6668 25.9999 51.6668ZM25.9999 47.0002C37.5979 47.0002 46.9999 37.5981 46.9999 26.0002C46.9999 14.4022 37.5979 5.00016 25.9999 5.00016C14.4019 5.00016 4.99992 14.4022 4.99992 26.0002C4.99992 37.5981 14.4019 47.0002 25.9999 47.0002ZM33.6833 17.3502L21.3333 29.7003L15.9832 24.3502L12.6833 27.6501L21.3333 36.3L36.9832 20.6501L33.6833 17.3502Z" fill="black"/>
</svg>
