<svg width="64" height="64" viewBox="0 0 64 64" fill="none" xmlns="http://www.w3.org/2000/svg">
<path d="M38.6667 42.6666H25.3333V56H38.6667V42.6666Z" fill="#6C19FF"/>
<path d="M48 50.6666H16V56H48V50.6666Z" fill="#6C19FF"/>
<path d="M57.3333 9.33337H6.66666V40H57.3333V9.33337Z" fill="#3DD9EB"/>
<path d="M57.3333 40H6.66666V46.6667H57.3333V40Z" fill="#6C19FF"/>
<path d="M38.6667 42.6666H25.3333V46.6666H38.6667V42.6666Z" fill="#2100C4"/>
<path d="M22.5522 18.6192L15.9527 25.219L18.7811 28.0474L25.3807 21.4476L22.5522 18.6192Z" fill="#6C19FF"/>
<path d="M18.7751 22.3927L15.9467 25.2212L22.5465 31.8207L25.3749 28.9923L18.7751 22.3927Z" fill="#6C19FF"/>
<path d="M18.7781 22.3929L15.9516 25.2195L18.78 28.0479L21.6065 25.2213L18.7781 22.3929Z" fill="#2100C4"/>
<path d="M41.444 18.6203L38.6157 21.4487L45.2154 28.0483L48.0438 25.2198L41.444 18.6203Z" fill="#6C19FF"/>
<path d="M45.217 22.3925L38.6174 28.9923L41.4459 31.8207L48.0455 25.2209L45.217 22.3925Z" fill="#6C19FF"/>
<path d="M45.215 22.3938L42.3866 25.2223L45.2132 28.0488L48.0416 25.2203L45.215 22.3938Z" fill="#2100C4"/>
<path d="M32.3107 13.3334L27.6133 37.3334H31.6893L36.3867 13.3334H32.3107Z" fill="#6C19FF"/>
</svg>
