<svg width="64" height="64" viewBox="0 0 64 64" fill="none" xmlns="http://www.w3.org/2000/svg">
  <path d="M26.6666 26.6666H18.6666V33.6H26.6666V26.6666Z" fill="#3DD9EB"/>
  <path d="M26.6666 54.4H18.6666V61.3334H26.6666V54.4Z" fill="#3DD9EB"/>
  <path d="M40 48V40H33.0667V48H40Z" fill="#3DD9EB"/>
  <path d="M12.2667 48V40H5.33339L5.33339 48H12.2667Z" fill="#3DD9EB"/>
  <path d="M37.7517 34.5719L32.095 28.9149L27.1923 33.8174L32.849 39.4744L37.7517 34.5719Z" fill="#3DD9EB"/>
  <path d="M18.1415 54.1816L12.4847 48.5247L7.58205 53.4272L13.2388 59.0841L18.1415 54.1816Z" fill="#3DD9EB"/>
  <path d="M32.095 59.0851L37.7517 53.4281L32.849 48.5256L27.1923 54.1825L32.095 59.0851Z" fill="#3DD9EB"/>
  <path d="M12.4844 39.4745L18.1411 33.8175L13.2384 28.915L7.58166 34.5719L12.4844 39.4745Z" fill="#3DD9EB"/>
  <path d="M22.6667 58.6667C30.7668 58.6667 37.3333 52.1002 37.3333 44C37.3333 35.8999 30.7668 29.3334 22.6667 29.3334C14.5665 29.3334 8 35.8999 8 44C8 52.1002 14.5665 58.6667 22.6667 58.6667Z" fill="#3DD9EB"/>
  <path d="M22.6666 56C29.294 56 34.6666 50.6274 34.6666 44C34.6666 37.3726 29.294 32 22.6666 32C16.0392 32 10.6666 37.3726 10.6666 44C10.6666 50.6274 16.0392 56 22.6666 56Z" fill="#7DEBF5"/>
  <path d="M44.6893 27.9547C50.936 27.9547 56 22.8907 56 16.644C56 10.3973 50.936 5.33337 44.6893 5.33337C38.4426 5.33337 33.3787 10.3973 33.3787 16.644C33.3787 22.8907 38.4426 27.9547 44.6893 27.9547Z" fill="#6C19FF"/>
  <path d="M44.6893 23.9547C48.7269 23.9547 52 20.6816 52 16.644C52 12.6065 48.7269 9.33337 44.6893 9.33337C40.6518 9.33337 37.3787 12.6065 37.3787 16.644C37.3787 20.6816 40.6518 23.9547 44.6893 23.9547Z" fill="#2100C4"/>
  <path d="M48 2.66663H41.3334V7.99996H48V2.66663Z" fill="#6C19FF"/>
  <path d="M48 25.3334H41.3334V30.6667H48V25.3334Z" fill="#6C19FF"/>
  <path d="M58.6666 20V13.3334H53.3333V20H58.6666Z" fill="#6C19FF"/>
  <path d="M36 20V13.3334H30.6667V20H36Z" fill="#6C19FF"/>
  <path d="M52.2086 28.9226L56.9226 24.2085L53.1513 20.4373L48.4373 25.1515L52.2086 28.9226Z" fill="#6C19FF"/>
  <path d="M36.1819 12.8959L40.8959 8.18176L37.1246 4.41059L32.4106 9.12472L36.1819 12.8959Z" fill="#6C19FF"/>
  <path d="M56.9226 9.12477L52.2086 4.41064L48.4373 8.18181L53.1513 12.8959L56.9226 9.12477Z" fill="#6C19FF"/>
  <path d="M40.8958 25.1514L36.1819 20.4373L32.4106 24.2084L37.1245 28.9226L40.8958 25.1514Z" fill="#6C19FF"/>
  <path d="M22.6666 52C27.0849 52 30.6666 48.4183 30.6666 44C30.6666 39.5817 27.0849 36 22.6666 36C18.2483 36 14.6666 39.5817 14.6666 44C14.6666 48.4183 18.2483 52 22.6666 52Z" fill="#3DD9EB"/>
  <path d="M34 48.7613L25.3334 42.6213V32H20V42.6213L11.3334 48.7613L14.4174 53.1133L22.6667 47.268L30.916 53.1133L34 48.7613Z" fill="#3DD9EB"/>
  <path d="M25.3334 42.6213V36.456C24.4987 36.1613 23.6014 36 22.6667 36C21.732 36 20.8347 36.1613 20 36.456V42.6213L14.9694 46.1867C15.4747 47.968 16.58 49.4947 18.0547 50.5373L22.6667 47.268L27.28 50.536C28.7534 49.4933 29.86 47.9667 30.3654 46.1853L25.3334 42.6213Z" fill="#00B3D7"/>
</svg>