<svg width="79" height="86" viewBox="0 0 79 86" fill="none" xmlns="http://www.w3.org/2000/svg">
<path fill-rule="evenodd" clip-rule="evenodd" d="M42.75 71.5C23.0058 71.5 7 55.4942 7 35.75C7 16.0058 23.0058 0 42.75 0C62.4942 0 78.5 16.0058 78.5 35.75C78.5 55.4942 62.4942 71.5 42.75 71.5ZM42.75 65C58.9043 65 72 51.9043 72 35.75C72 19.5957 58.9043 6.5 42.75 6.5C26.5957 6.5 13.5 19.5957 13.5 35.75C13.5 51.9043 26.5957 65 42.75 65ZM53.4519 23.7019L36.25 40.9038L28.7981 33.4519L24.2019 38.0481L36.25 50.0962L58.0481 28.2981L53.4519 23.7019Z" fill="black"/>
</svg> 