<svg width="64" height="64" viewBox="0 0 64 64" fill="none" xmlns="http://www.w3.org/2000/svg">
<path d="M32 52C43.0457 52 52 43.0457 52 32C52 20.9543 43.0457 12 32 12C20.9543 12 12 20.9543 12 32C12 43.0457 20.9543 52 32 52Z" fill="#F5BC00"/>
<path d="M49.001 11.1863L41.3983 18.7892L45.1696 22.5604L52.7723 14.9575L49.001 11.1863Z" fill="#F5BC00"/>
<path d="M34.6667 5.24799H29.3333V16H34.6667V5.24799Z" fill="#F5BC00"/>
<path d="M58.7093 29.2906H47.9573V34.624H58.7093V29.2906Z" fill="#F5BC00"/>
<path d="M45.1695 41.3557L41.3983 45.127L49.0012 52.7296L52.7724 48.9583L45.1695 41.3557Z" fill="#F5BC00"/>
<path d="M34.6667 47.9147H29.3333V58.6667H34.6667V47.9147Z" fill="#F5BC00"/>
<path d="M18.8304 41.3556L11.2277 48.9586L14.999 52.7297L22.6017 45.1268L18.8304 41.3556Z" fill="#F5BC00"/>
<path d="M16.0427 29.2906H5.29068V34.624H16.0427V29.2906Z" fill="#F5BC00"/>
<path d="M14.9978 11.1854L11.2267 14.9567L18.8296 22.5594L22.6008 18.7881L14.9978 11.1854Z" fill="#F5BC00"/>
<path d="M47.9573 34.624H51.808C51.9213 33.764 52 32.892 52 32C52 31.0786 51.916 30.1786 51.796 29.2906H47.9573V34.624Z" fill="#EB7900"/>
<path d="M44.0907 16.096L41.3973 18.7893L45.168 22.56L47.8667 19.8613C46.7813 18.4427 45.5133 17.1773 44.0907 16.096Z" fill="#EB7900"/>
<path d="M34.6667 12.1987C33.792 12.0813 32.9067 12 32 12C31.0933 12 30.208 12.0813 29.3333 12.1987V16H34.6667V12.1987Z" fill="#EB7900"/>
<path d="M45.1693 41.356L41.3987 45.1267L44.14 47.868C45.5573 46.7814 46.8227 45.512 47.904 44.0907L45.1693 41.356Z" fill="#EB7900"/>
<path d="M29.3333 51.8013C30.208 51.9187 31.0933 52 32 52C32.9067 52 33.792 51.9187 34.6667 51.8013V47.9147H29.3333V51.8013Z" fill="#EB7900"/>
<path d="M16.0947 44.0907C17.1773 45.512 18.4413 46.7814 19.8587 47.868L22.6 45.1267L18.8293 41.356L16.0947 44.0907Z" fill="#EB7900"/>
<path d="M12.192 34.624H16.0427V29.2906H12.204C12.084 30.1786 12 31.0786 12 32C12 32.892 12.0787 33.764 12.192 34.624Z" fill="#EB7900"/>
<path d="M16.132 19.86L18.8307 22.5587L22.6013 18.788L19.908 16.0947C18.4867 17.1773 17.2187 18.4427 16.132 19.86Z" fill="#EB7900"/>
<path d="M49.001 11.1863L41.3983 18.7892L45.1696 22.5604L52.7723 14.9575L49.001 11.1863Z" fill="#F5BC00"/>
<path d="M34.6667 5.24799H29.3333V16H34.6667V5.24799Z" fill="#F5BC00"/>
<path d="M58.7093 29.2906H47.9573V34.624H58.7093V29.2906Z" fill="#F5BC00"/>
<path d="M45.1695 41.3557L41.3983 45.127L49.0012 52.7296L52.7724 48.9583L45.1695 41.3557Z" fill="#F5BC00"/>
<path d="M34.6667 47.9147H29.3333V58.6667H34.6667V47.9147Z" fill="#F5BC00"/>
<path d="M18.8304 41.3556L11.2277 48.9586L14.999 52.7297L22.6017 45.1268L18.8304 41.3556Z" fill="#F5BC00"/>
<path d="M16.0427 29.2906H5.29068V34.624H16.0427V29.2906Z" fill="#F5BC00"/>
<path d="M14.9978 11.1854L11.2267 14.9567L18.8296 22.5594L22.6008 18.7881L14.9978 11.1854Z" fill="#F5BC00"/>
<path d="M47.9573 34.624H51.808C51.9213 33.764 52 32.892 52 32C52 31.0786 51.916 30.1786 51.796 29.2906H47.9573V34.624Z" fill="#EB7900"/>
<path d="M44.0907 16.096L41.3973 18.7893L45.168 22.56L47.8667 19.8613C46.7813 18.4427 45.5133 17.1773 44.0907 16.096Z" fill="#EB7900"/>
<path d="M34.6667 12.1987C33.792 12.0813 32.9067 12 32 12C31.0933 12 30.208 12.0813 29.3333 12.1987V16H34.6667V12.1987Z" fill="#EB7900"/>
<path d="M45.1693 41.356L41.3987 45.1267L44.14 47.868C45.5573 46.7814 46.8227 45.512 47.904 44.0907L45.1693 41.356Z" fill="#EB7900"/>
<path d="M29.3333 51.8013C30.208 51.9187 31.0933 52 32 52C32.9067 52 33.792 51.9187 34.6667 51.8013V47.9147H29.3333V51.8013Z" fill="#EB7900"/>
<path d="M16.0947 44.0907C17.1773 45.512 18.4413 46.7814 19.8587 47.868L22.6 45.1267L18.8293 41.356L16.0947 44.0907Z" fill="#EB7900"/>
<path d="M12.192 34.624H16.0427V29.2906H12.204C12.084 30.1786 12 31.0786 12 32C12 32.892 12.0787 33.764 12.192 34.624Z" fill="#EB7900"/>
<path d="M16.132 19.86L18.8307 22.5587L22.6013 18.788L19.908 16.0947C18.4867 17.1773 17.2187 18.4427 16.132 19.86Z" fill="#EB7900"/>
</svg>
