<svg width="64" height="64" viewBox="0 0 64 64" fill="none" xmlns="http://www.w3.org/2000/svg">
<path d="M32 58.6667C21.0454 58.6667 11.8174 50.48 10.512 39.604L9.44937 33.4187C7.82803 19.8987 18.384 8 32 8C45.616 8 56.172 19.8987 54.5494 33.4173L53.4867 39.6027C52.1827 50.48 42.9547 58.6667 32 58.6667Z" fill="#DDBAFF"/>
<path d="M50.268 14.5546C49.168 13.0653 47.8853 11.7106 46.4573 10.5319C42.5493 7.29861 37.5267 5.33728 32 5.33728C26.4733 5.33728 21.4507 7.29861 17.5413 10.5306C16.8027 11.1413 16.096 11.7986 15.4347 12.5106C11.2813 16.9413 8.89733 23.0159 9.33733 29.5466C13.82 27.6146 17.1773 23.5706 18.1573 18.6693H45.8427C46.8227 23.5719 50.18 27.6146 54.6627 29.5466C55.0373 23.9759 53.3587 18.7373 50.268 14.5546Z" fill="#6C19FF"/>
<path d="M53.3333 41.3334H10.6666C8.45729 41.3334 6.66663 39.5427 6.66663 37.3334C6.66663 35.124 8.45729 33.3334 10.6666 33.3334H53.3333C55.5426 33.3334 57.3333 35.124 57.3333 37.3334C57.3333 39.5427 55.5426 41.3334 53.3333 41.3334Z" fill="#DDBAFF"/>
<path d="M50.268 18.5507C49.168 17.0614 47.8853 15.7067 46.4573 14.528C42.5493 11.2947 37.5267 9.33337 32 9.33337C26.4733 9.33337 21.4507 11.2947 17.5413 14.5267C16.8027 15.1374 16.096 15.7947 15.4347 16.5067C11.2813 20.9374 8.89733 27.012 9.33733 33.5427C13.82 31.6107 17.1773 27.5667 18.1573 22.6654H45.8427C46.8227 27.568 50.18 31.6107 54.6627 33.5427C55.0373 27.972 53.3587 22.7334 50.268 18.5507Z" fill="#2100C4"/>
</svg> 