<svg width="28" height="29" viewBox="0 0 28 29" fill="none" xmlns="http://www.w3.org/2000/svg">
<path fill-rule="evenodd" clip-rule="evenodd" d="M14 28C7.92487 28 3 23.0751 3 17C3 10.9249 7.92487 6 14 6C20.0751 6 25 10.9249 25 17C25 23.0751 20.0751 28 14 28ZM14 26C18.9706 26 23 21.9706 23 17C23 12.0294 18.9706 8 14 8C9.02944 8 5 12.0294 5 17C5 21.9706 9.02944 26 14 26ZM17.2929 13.2929L12 18.5858L9.70711 16.2929L8.29289 17.7071L12 21.4142L18.7071 14.7071L17.2929 13.2929Z" fill="#58CC02"/>
</svg>
