<svg width="78" height="78" viewBox="0 0 78 78" fill="none" xmlns="http://www.w3.org/2000/svg">
<path fill-rule="evenodd" clip-rule="evenodd" d="M35.75 74.5C16.0058 74.5 0 58.4942 0 38.75C0 19.0058 16.0058 3 35.75 3C55.4942 3 71.5 19.0058 71.5 38.75C71.5 58.4942 55.4942 74.5 35.75 74.5ZM35.75 68C51.9043 68 65 54.9043 65 38.75C65 22.5957 51.9043 9.5 35.75 9.5C19.5957 9.5 6.5 22.5957 6.5 38.75C6.5 54.9043 19.5957 68 35.75 68ZM25.0481 54.0481L35.75 43.3462L46.4519 54.0481L51.0481 49.4519L40.3462 38.75L51.0481 28.0481L46.4519 23.4519L35.75 34.1538L25.0481 23.4519L20.4519 28.0481L31.1538 38.75L20.4519 49.4519L25.0481 54.0481Z" fill="black"/>
</svg> 